HIERARCHY
ROOT Hips
{
	OFFSET 0.000000 89.005402 0.000000
	CHANNELS 6 Xposition Yposition Zposition Xrotation Yrotation Zrotation
	JOINT Spine
	{
		OFFSET 0.116900 10.681000 0.373400
		CHANNELS 3 Xrotation Yrotation Zrotation
		JOINT Spine1
		{
			OFFSET 0.000000 13.840401 0.053500
			CHANNELS 3 Xrotation Yrotation Zrotation
			JOINT Spine2
			{
				OFFSET 0.000000 14.712700 -0.366200
				CHANNELS 3 Xrotation Yrotation Zrotation
				JOINT Neck
				{
					OFFSET 0.000000 35.415497 -3.314200
					CHANNELS 3 Xrotation Yrotation Zrotation
					JOINT Head
					{
						OFFSET 0.000000 16.899200 1.218300
						CHANNELS 3 Xrotation Yrotation Zrotation
						JOINT HeadTop_End
						{
							OFFSET 0.000000 22.206207 2.192500
							CHANNELS 3 Xrotation Yrotation Zrotation
							End Site
							{
								OFFSET 0.000000 22.314178 0.000000
							}
						}
					}
				}
				JOINT LeftShoulder
				{
					OFFSET 12.896400 26.716293 -4.548400
					CHANNELS 3 Xrotation Yrotation Zrotation
					JOINT LeftArm
					{
						OFFSET 19.027000 -4.857010 -1.718400
						CHANNELS 3 Xrotation Yrotation Zrotation
						JOINT LeftForeArm
						{
							OFFSET 24.179897 0.000000 0.000000
							CHANNELS 3 Xrotation Yrotation Zrotation
							JOINT LeftHand
							{
								OFFSET 27.156403 0.000000 0.000000
								CHANNELS 3 Xrotation Yrotation Zrotation
								JOINT LeftHandIndex1
								{
									OFFSET 16.441200 0.000000 0.000000
									CHANNELS 3 Xrotation Yrotation Zrotation
									JOINT LeftHandIndex2
									{
										OFFSET 4.821899 0.000000 0.000000
										CHANNELS 3 Xrotation Yrotation Zrotation
										JOINT LeftHandIndex3
										{
											OFFSET 6.386497 0.000000 0.000000
											CHANNELS 3 Xrotation Yrotation Zrotation
											JOINT LeftHandIndex4
											{
												OFFSET 5.188988 0.000000 0.000000
												CHANNELS 3 Xrotation Yrotation Zrotation
												End Site
												{
													OFFSET -0.178703 5.185913 0.000177
												}
											}
										}
									}
								}
								JOINT LeftHandThumb1
								{
									OFFSET 6.534897 -5.032593 5.900300
									CHANNELS 3 Xrotation Yrotation Zrotation
									JOINT LeftHandThumb2
									{
										OFFSET 3.818176 -2.204422 2.204423
										CHANNELS 3 Xrotation Yrotation Zrotation
										JOINT LeftHandThumb3
										{
											OFFSET 3.252098 -1.877594 1.877601
											CHANNELS 3 Xrotation Yrotation Zrotation
											JOINT LeftHandThumb4
											{
												OFFSET 5.251778 -3.032120 3.032117
												CHANNELS 3 Xrotation Yrotation Zrotation
												End Site
												{
													OFFSET 0.000023 6.780014 0.000000
												}
											}
										}
									}
								}
							}
						}
					}
				}
				JOINT RightShoulder
				{
					OFFSET -12.896300 26.716293 -4.548400
					CHANNELS 3 Xrotation Yrotation Zrotation
					JOINT RightArm
					{
						OFFSET -19.027000 -4.857010 -1.718400
						CHANNELS 3 Xrotation Yrotation Zrotation
						JOINT RightForeArm
						{
							OFFSET -24.179897 0.000000 0.000000
							CHANNELS 3 Xrotation Yrotation Zrotation
							JOINT RightHand
							{
								OFFSET -27.156403 0.000000 0.000000
								CHANNELS 3 Xrotation Yrotation Zrotation
								JOINT RightHandThumb1
								{
									OFFSET -6.591202 -4.852203 5.988100
									CHANNELS 3 Xrotation Yrotation Zrotation
									JOINT RightHandThumb2
									{
										OFFSET -3.818176 -2.204422 2.204423
										CHANNELS 3 Xrotation Yrotation Zrotation
										JOINT RightHandThumb3
										{
											OFFSET -3.252098 -1.877594 1.877601
											CHANNELS 3 Xrotation Yrotation Zrotation
											JOINT RightHandThumb4
											{
												OFFSET -5.251778 -3.032120 3.032117
												CHANNELS 3 Xrotation Yrotation Zrotation
												End Site
												{
													OFFSET -0.000023 6.780014 0.000000
												}
											}
										}
									}
								}
								JOINT RightHandIndex1
								{
									OFFSET -16.029404 0.000000 0.000000
									CHANNELS 3 Xrotation Yrotation Zrotation
									JOINT RightHandIndex2
									{
										OFFSET -5.213303 0.000000 0.000000
										CHANNELS 3 Xrotation Yrotation Zrotation
										JOINT RightHandIndex3
										{
											OFFSET -6.386528 0.000000 0.000000
											CHANNELS 3 Xrotation Yrotation Zrotation
											JOINT RightHandIndex4
											{
												OFFSET -5.189026 0.000000 0.000000
												CHANNELS 3 Xrotation Yrotation Zrotation
												End Site
												{
													OFFSET 0.236702 5.183624 0.001972
												}
											}
										}
									}
								}
							}
						}
					}
				}
			}
		}
	}
	JOINT LeftUpLeg
	{
		OFFSET 14.073000 -7.904099 -1.463000
		CHANNELS 3 Xrotation Yrotation Zrotation
		JOINT LeftLeg
		{
			OFFSET -0.109806 -34.073280 4.093200
			CHANNELS 3 Xrotation Yrotation Zrotation
			JOINT LeftFoot
			{
				OFFSET 0.109806 -29.899420 -6.319000
				CHANNELS 3 Xrotation Yrotation Zrotation
				JOINT LeftToeBase
				{
					OFFSET 1.551100 -14.988700 20.535801
					CHANNELS 3 Xrotation Yrotation Zrotation
					JOINT LeftToe_End
					{
						OFFSET 0.221200 0.570800 13.248301
						CHANNELS 3 Xrotation Yrotation Zrotation
						End Site
						{
							OFFSET 0.000000 13.262435 0.000000
						}
					}
				}
			}
		}
	}
	JOINT RightUpLeg
	{
		OFFSET -13.839300 -7.904099 -1.463000
		CHANNELS 3 Xrotation Yrotation Zrotation
		JOINT RightLeg
		{
			OFFSET 0.109694 -34.073219 4.093300
			CHANNELS 3 Xrotation Yrotation Zrotation
			JOINT RightFoot
			{
				OFFSET -0.109694 -29.899384 -6.319200
				CHANNELS 3 Xrotation Yrotation Zrotation
				JOINT RightToeBase
				{
					OFFSET -1.551100 -14.988700 20.535801
					CHANNELS 3 Xrotation Yrotation Zrotation
					JOINT RightToe_End
					{
						OFFSET -0.221200 0.570900 13.248299
						CHANNELS 3 Xrotation Yrotation Zrotation
						End Site
						{
							OFFSET 0.000000 13.262440 0.000000
						}
					}
				}
			}
		}
	}
}
MOTION
Frames: 6
Frame Time: 0.033333
-53.037338 65.487198 21.391708 12.796869 30.215449 -11.741022 19.781039 4.190373 2.507876 0.768529 0.936439 0.695999 0.767955 0.945960 0.678947 -5.578351 -2.872095 1.300392 -43.393356 -25.377264 -7.665326 0.000001 -0.000000 -0.000000 0.139541 6.589879 -4.630440 17.651820 -16.479544 -54.152031 -62.138008 -62.364490 -59.504280 -10.119854 -17.739965 -10.417907 2.157639 6.830646 -49.789979 6.886168 5.759075 -100.207174 6.361898 5.828787 -95.017145 -0.000001 0.000001 -0.000001 26.347950 -5.203977 31.595526 23.415815 6.920015 -21.726944 -6.484555 -26.287761 21.746605 0.000002 -0.000003 -0.000003 1.798565 -7.792344 17.697461 13.670517 4.503290 67.231949 -261.688480 125.590377 260.379024 -2.084924 -9.985933 27.322961 4.721571 5.710816 -2.166209 38.284501 -16.617548 8.886789 -20.672204 9.220854 -16.398400 0.000003 -0.000001 -0.000001 1.674775 -5.805153 49.120443 5.480042 -4.584051 100.188056 5.063222 -4.639507 95.007576 -0.000001 -0.000000 -0.000000 -72.855360 -3.673111 55.341007 71.796934 0.881452 -14.851225 10.756830 0.068582 -6.918195 -18.577730 -19.697699 0.094714 -0.000000 0.000000 0.000000 -42.641260 -1.476841 -7.070464 80.209541 -4.429549 7.782711 -45.528521 -5.437037 8.345824 -0.000113 -2.595541 0.000000 0.000000 -0.000000 -0.000000 
-52.982716 65.413589 21.419899 12.637076 30.284891 -11.680425 19.831796 4.260671 2.584250 0.778624 0.946545 0.713955 0.778601 0.952023 0.697924 -5.620436 -2.873844 1.317680 -43.848240 -25.317093 -7.801965 0.000000 -0.000000 -0.000000 0.130826 6.635362 -4.564805 17.730059 -16.548263 -54.181360 -62.124648 -62.513750 -59.523295 -10.029089 -17.840645 -10.120034 2.161716 6.835445 -49.842844 6.886040 5.759092 -100.205869 6.361803 5.828781 -95.016360 -0.000002 0.000001 0.000003 26.371956 -5.334388 31.661564 23.415401 6.919587 -21.726608 -6.489118 -26.290136 21.724448 0.000002 -0.000001 -0.000001 1.799331 -7.819808 17.687275 13.788005 4.460253 67.145807 -262.073867 125.783971 260.831182 -2.025792 -10.104620 26.739846 4.755281 5.813144 -2.196561 38.275834 -16.604420 8.887862 -20.663977 9.214171 -16.385139 0.000001 -0.000002 -0.000002 1.677957 -5.809290 49.173257 5.479934 -4.584071 100.186738 5.063151 -4.639509 95.006777 0.000001 0.000000 0.000001 -72.914134 -3.875969 55.345286 72.142302 1.090274 -14.598192 11.053287 0.038088 -7.123939 -19.039253 -20.112691 0.079060 0.000000 0.000001 0.000000 -42.449144 -1.346066 -6.973657 80.375078 -4.496745 7.728436 -45.715911 -5.513404 8.470007 -0.000049 -2.929503 -0.000002 0.000000 -0.000000 0.000000 
-52.966713 65.364609 21.468699 12.545037 30.370607 -11.605291 19.859590 4.304833 2.627044 0.777934 0.952620 0.732377 0.777714 0.955104 0.717310 -5.659154 -2.873117 1.316012 -44.344276 -25.231313 -8.098326 0.000001 -0.000000 -0.000000 0.122448 6.677876 -4.503387 17.803061 -16.612526 -54.209005 -62.111220 -62.654425 -59.540111 -9.944878 -17.930191 -9.841860 2.159649 6.835148 -49.818047 6.887474 5.758848 -100.220254 6.361740 5.828798 -95.015574 0.000000 -0.000001 -0.000001 26.459154 -4.885051 31.582265 23.414910 6.919021 -21.726205 -6.491302 -26.288425 21.679113 -0.000000 -0.000000 0.000001 1.801851 -7.887741 17.671269 13.899358 4.468463 67.091712 -262.390569 125.834351 261.216104 -1.955412 -10.245984 26.116256 4.872326 5.324159 -2.294245 38.266702 -16.590644 8.888989 -20.652315 9.201464 -16.346207 0.000002 0.000001 -0.000002 1.676290 -5.809302 49.148525 5.481078 -4.583857 100.201102 5.063086 -4.639519 95.006012 0.000003 -0.000001 0.000002 -72.880045 -3.897760 55.325601 72.323248 1.252846 -14.493769 11.055144 0.031758 -7.221278 -19.100341 -20.441170 0.067229 0.000000 0.000001 0.000000 -42.309740 -1.269055 -6.932588 80.513116 -4.550687 7.691153 -45.893615 -5.559545 8.534913 -0.000056 -3.161075 0.000003 -0.000000 0.000001 0.000000 
-52.958073 65.321114 21.535286 12.532439 30.461223 -11.554193 19.852915 4.300041 2.663491 0.768113 0.946782 0.750129 0.767937 0.948383 0.735447 -5.704492 -2.867600 1.310188 -44.875524 -25.068352 -8.460349 0.000002 0.000000 0.000000 0.115609 6.716805 -4.446974 17.869810 -16.671669 -54.234625 -62.097280 -62.784724 -59.553949 -9.869664 -18.007200 -9.587468 2.153816 6.831724 -49.746163 6.891611 5.758100 -100.261481 6.361641 5.828787 -95.014850 -0.000000 0.000002 0.000002 26.444092 -4.922810 31.596278 23.414418 6.918410 -21.725826 -6.492441 -26.286934 21.652615 0.000002 -0.000003 -0.000002 1.801504 -7.946130 17.630928 13.969379 4.490103 67.093857 -262.564028 125.988454 261.414398 -1.876059 -10.393764 25.581389 4.866368 5.319129 -2.301543 38.257225 -16.576263 8.890188 -20.645251 9.193462 -16.323660 -0.000000 0.000003 0.000002 1.671636 -5.806775 49.076712 5.484361 -4.583275 100.242240 5.063032 -4.639529 95.005295 0.000001 -0.000000 -0.000000 -72.894770 -3.870295 55.456591 72.380491 1.265206 -14.591497 11.162385 0.023435 -7.157534 -19.211179 -20.899330 0.049806 0.000001 -0.000001 -0.000000 -42.223096 -1.279939 -6.998617 80.628245 -4.495910 7.703227 -46.082224 -5.571218 8.509854 -0.000069 -3.203514 -0.000000 -0.000000 -0.000000 -0.000000 
-52.938400 65.279518 21.600924 12.566756 30.547464 -11.548472 19.848549 4.275744 2.723196 0.762631 0.933025 0.764103 0.762490 0.934263 0.749932 -5.767814 -2.856822 1.308014 -45.577070 -24.868483 -8.809455 0.000000 -0.000000 0.000000 0.110365 6.751647 -4.396392 17.929467 -16.724808 -54.257766 -62.083291 -62.902894 -59.564960 -9.801852 -18.070954 -9.359708 2.140345 6.821895 -49.577758 6.888373 5.758681 -100.229160 6.361583 5.828793 -95.014195 -0.000005 -0.000000 0.000003 26.390683 -5.031000 31.616239 23.413936 6.917804 -21.725471 -6.486716 -26.298364 21.805265 -0.000001 -0.000001 -0.000000 1.800473 -8.001480 17.578009 13.986914 4.519050 67.140951 -262.585147 126.181502 261.420955 -1.867631 -10.417867 25.181856 4.823430 5.383763 -2.291126 38.247311 -16.561296 8.891447 -20.685267 9.235264 -16.456629 -0.000001 -0.000001 -0.000002 1.660956 -5.799084 48.908546 5.481795 -4.583738 100.210022 5.062976 -4.639531 95.004605 0.000000 -0.000001 -0.000000 -72.993303 -3.929674 55.712566 72.441437 1.307660 -14.730370 11.583527 -0.008953 -7.088278 -19.646455 -21.756987 0.021755 -0.000000 0.000000 -0.000000 -42.156126 -1.389241 -7.170023 80.703623 -4.302025 7.789649 -46.269289 -5.543436 8.386584 -0.000034 -3.072501 -0.000005 -0.000000 -0.000000 0.000000 
-52.936268 65.267677 21.657043 12.596587 30.609667 -11.567098 19.894420 4.272361 2.794117 0.770386 0.923842 0.782232 0.770346 0.924676 0.768381 -5.833455 -2.849870 1.307429 -46.525046 -24.689064 -9.205283 0.000000 0.000000 0.000000 0.105883 6.781907 -4.352392 17.981188 -16.771048 -54.278045 -62.069139 -63.007191 -59.572609 -9.742858 -18.120261 -9.162384 2.128050 6.813014 -49.424502 6.900031 5.756589 -100.345383 6.361524 5.828823 -95.013553 0.000004 -0.000001 -0.000002 26.266433 -5.063317 31.548295 23.413455 6.917175 -21.725117 -6.483936 -26.303468 21.877244 -0.000003 0.000001 0.000002 1.799436 -8.024487 17.549355 13.954375 4.541792 67.175334 -262.514469 126.195586 261.332299 -1.974020 -10.253707 24.860266 4.712658 5.348778 -2.225413 38.237028 -16.545752 8.892754 -20.703685 9.253651 -16.519970 0.000002 0.000004 0.000001 1.651190 -5.792143 48.755448 5.491070 -4.582067 100.325985 5.062932 -4.639538 95.004018 0.000002 -0.000002 0.000003 -73.030958 -3.981118 55.836407 72.437961 1.348787 -14.774742 11.836944 -0.030715 -7.096482 -19.874952 -22.186722 0.014499 -0.000000 0.000001 -0.000000 -42.079105 -1.546931 -7.328667 80.700618 -4.110989 7.909828 -46.389808 -5.489542 8.226706 -0.000021 -2.861265 0.000001 0.000000 -0.000000 -0.000000 
